<?xml version="1.0" encoding="utf-8"?>
<!-- Generator: Adobe Illustrator 25.0.1, SVG Export Plug-In . SVG Version: 6.00 Build 0)  -->
<svg version="1.1" id="Camada_1" xmlns="http://www.w3.org/2000/svg" xmlns:xlink="http://www.w3.org/1999/xlink" x="0px" y="0px"
	 viewBox="0 0 428.74 362.1" style="enable-background:new 0 0 428.74 362.1;" xml:space="preserve">
<style type="text/css">
	.st0{fill:#FFFFFF;}
</style>
<path class="st0" d="M428.2,42c-1.2-2.9-4.2-4.3-8.9-4.2c-3.2,0.1-6.4,0.1-9.6,0.1c-1.4,0-2.8,0-4.1,0h-15.1v-0.4c0-3.1,0-6.1,0-9.1
	c0-6.8,0-13.3,0-19.8c0-3.7-1-6.2-2.7-7.5c-1.8-1.3-4.4-1.4-7.8-0.3c-2,0.6-3.6,1.8-5,3.2c-6.1,6.1-12.2,12.2-18.3,18.3
	c-9.3,9.4-19,19-28.6,28.4c-3.2,3.1-5,7.4-4.8,11.9c0,3,0,6,0,9c0,6-0.1,12.2,0.1,18.3c0.1,4.4-1.3,7.2-4.9,9.4l-0.3,0.2l-0.2-0.2
	c-27.4-25-63.2-38.8-100.3-38.8c-2.6,0-5.2,0.1-7.8,0.2c-83.1,4-147.3,74.6-143.3,157.7c1.7,35,15.5,68.3,39.1,94.3
	c52.6,57.5,139.1,65.9,201.2,19.4c31.3-23.4,50.8-54.2,57.9-91.5c9.2-47.9-2.8-91.7-35.8-130.3l-0.2-0.3l0.3-0.3
	c4-4.6,4.1-4.6,9.8-4.6h7.9c6.5,0,12.9,0,19.4,0c4.2,0.2,8.2-1.5,11.1-4.5c4.7-5,9.7-9.9,14.5-14.7c2-2,4-4,6-6l7.2-7.2
	c6.7-6.7,13.5-13.5,20.2-20.2C428.4,49.1,429.5,45.3,428.2,42z M353.5,207.9c2,74.9-56.8,137.3-131.7,139.8
	c-1.7,0.1-3.4,0.1-5.2,0.1c-74.2,0-134.8-59.4-136.3-133.6c-0.8-36.9,13.3-72.5,39.2-98.8c25-25.7,59.3-40.4,95.2-40.8
	c34.6-0.6,68.3,11.9,92.5,34.1l0.3,0.3l-27.3,27.2l-0.3-0.2c-25.8-20.7-55.1-27.3-87.1-19.5c-23.1,5.6-41.9,18.6-55.9,38.5
	c-28.3,40.1-22.2,95.4,14.2,128.7c18,16.4,41.4,25.4,65.8,25.3c23,0,45.3-8,63-22.7c19.7-16.4,32.3-40.8,34.6-67
	c2.4-26-5.8-51.9-22.7-71.8l-0.3-0.3l26.9-27.1l0.3,0.3C340,143,352.7,174.8,353.5,207.9z M211.3,216.9c2.4,2.1,8.1,1.9,10.3-0.3
	c4.9-4.9,9.8-9.8,14.6-14.7l6.2-6.3l0.3,0.4c7.9,9.2,5.9,26.8-4.1,36.9c-11.9,12-31.2,12.2-43.3,0.4c-12-11.9-12.2-31.2-0.4-43.3
	c9.9-10.1,25.4-12.1,37.5-4.8l0.5,0.3l-5.3,5.3c-4.6,4.5-9.1,8.9-13.5,13.3l-0.6,0.6c-0.8,0.8-1.7,1.6-2.4,2.5
	C208.5,210.4,208.5,214.6,211.3,216.9L211.3,216.9z M246.6,171.7c-2,2.7-3.9,2.4-6.4,0.9c-18.8-10.9-42.8-7.3-57.1,8.7
	c-12.8,14.3-14.7,37.6-4.4,54.1c10.4,16.6,31,24.5,50.3,19.2c19.2-5,32.6-22.2,32.8-42c0.3-9.8-2.4-19.4-7.9-27.5l-0.2-0.3
	l26.7-26.6l0.3,0.3c11,11.3,18.3,28.8,19.6,46.8c1.1,15-1.4,37.5-19.3,59c-14.3,17.5-35.1,28.3-57.5,30.2c-2.2,0.2-4.4,0.3-6.6,0.3
	c-46,0.1-83.4-37-83.5-83c-0.1-20.9,7.7-41,21.8-56.4c15.5-17,36.3-26.9,58.5-27.7c20.8-0.8,41,6.4,56.8,19.9l0.4,0.3l-21.4,20.9
	c-0.3,0.3-0.6,0.5-0.9,0.8C247.8,170.3,247.2,171,246.6,171.7L246.6,171.7z M403.1,54.5c-0.4,0.3-0.9,0.5-1.4,0.8
	c-0.9,0.4-1.8,1-2.6,1.7c-4,4-8,8-12,12c-6.3,6.3-12.8,12.8-19.3,19.1c-1.8,1.6-4,2.5-6.3,2.6c-3.5,0.1-6.9,0.2-10.4,0.2
	c-2.1,0-4.2,0-6.3,0c-2.2,0-4.4,0-6.7,0h-0.4v-6.4c0-7.1,0-13.9,0.1-20.7c0-1,0.9-1.9,1.7-2.8c12-12,24-24,34.3-34.3
	c0.3-0.2,0.6-0.4,0.9-0.6c0.2-0.1,0.5-0.3,0.9-0.5l0.7-0.4V26c0,1.9,0,3.7,0,5.5c0,3.9,0,7.7,0,11.5c0.1,6.9,2.2,9.1,9.1,9.1
	c3.8,0,7.6,0,11.4,0h5.3l1.5,2.2L403.1,54.5z"/>
</svg>
