<svg id="Camada_1" data-name="Camada 1" xmlns="http://www.w3.org/2000/svg" width="127.9973mm" height="128mm" viewBox="0 0 362.827 362.8346"><path d="M173.7129,0c-23.386.1282-50.7322,7.42-75.0267,20.0063C54.24,43.0332,21.9307,81.7307,7.7109,128.9711A180.9381,180.9381,0,0,0,23,269.4515a14.9639,14.9639,0,0,1,1.1809,13.3526C17.8323,300.9,11.54,319.3642,5.4544,337.22L1.12,349.9325c-1.1631,3.4066-1.8081,8.0694,1.7219,10.9414,2.5077,2.04,5.2961,2.3184,9.3274.93q14.0235-4.8278,28.0614-9.615c13.5211-4.6221,27.5022-9.401,41.226-14.1661a13.2718,13.2718,0,0,1,4.38-.8014,12.0738,12.0738,0,0,1,6.046,1.7215c36.5879,20.6526,75.803,27.9692,116.5607,21.7425a180.2458,180.2458,0,0,0,118.3935-71.3571c27.4433-37.07,40.1288-83.9015,34.8032-128.4877C350.5165,67.7162,271.48.0758,173.7129,0ZM298.56,297.7508c-31.5127,31.8392-73.0129,49.1225-116.4815,49.1234a165.962,165.962,0,0,1-23.1547-1.63,161.5848,161.5848,0,0,1-63.9384-23.1053,13.0735,13.0735,0,0,0-12.6248-1.3845c-11.6757,4.1889-23.607,8.2349-35.1453,12.1466q-6.6812,2.2652-13.3587,4.5424c-1.1912.4072-2.3873.8-3.799,1.2623l-9.1407,3.0184L26.5541,325.09c2.613-7.716,5.1337-15.1581,7.6661-22.5959.6965-2.0447,1.37-4.1,2.0429-6.1539,1.6959-5.174,3.45-10.5247,5.5716-15.6935,1.9277-4.6958,1.4456-8.5347-1.7193-13.6913a161.1894,161.1894,0,0,1-24.1289-89.2626A165.4177,165.4177,0,0,1,181.3812,16.1c.5788,0,1.154.003,1.7345.0086A165.486,165.486,0,0,1,344.834,156.5725C352.7137,208.6182,335.8471,260.0756,298.56,297.7508Z" transform="translate(-0.0038)" fill="#fff"/><path d="M255.4678,123.7207a48.25,48.25,0,0,0-62.043-9.5459,79.0077,79.0077,0,0,0-9.5059,7.3364c-.915.7832-1.8505,1.5845-2.7973,2.3731-.3091-.3262-.6358-.6719-.961-1.0191A49.2554,49.2554,0,0,0,144.01,106.8735h-.0684A48.5138,48.5138,0,0,0,108.2393,122.58a54.5414,54.5414,0,0,0,.4907,74.6054q32.99,34.8,65.9917,69.5889c2.1289,2.2432,4.3706,3.3809,6.6621,3.3809,2.2793,0,4.5019-1.1241,6.6064-3.3428q32.9987-34.79,65.9766-69.6035a53.4556,53.4556,0,0,0,14.999-34.2725C269.8721,148.2437,265.33,135.05,255.4678,123.7207Zm-12.6524,61.543c-14.52,15.5781-29.4492,31.2695-43.8857,46.4453q-8.7847,9.2329-17.5562,18.4736L165.1973,233.126q-6.6959-7.0635-13.398-14.1211c-10.1963-10.7422-20.7392-21.8506-31.0732-32.8067-14.6314-15.5131-14.3579-39.1381.6216-53.7836a32.6054,32.6054,0,0,1,45.4726.0893c1.6992,1.6768,3.3765,3.459,4.9985,5.1821.9932,1.0547,1.9859,2.11,2.9922,3.1514a9.1111,9.1111,0,0,0,6.5244,3.17h.0279a9.1952,9.1952,0,0,0,6.5674-3.1523c1.039-1.0591,2.0547-2.146,3.0693-3.2334a76.5583,76.5583,0,0,1,6.9932-6.8848,32.2779,32.2779,0,0,1,24.916-7.2969,32.7055,32.7055,0,0,1,22.542,13.5611C256.4863,152.3374,255.4268,171.7324,242.8154,185.2637Z" transform="translate(-0.0038)" fill="#fff"/></svg>