<svg xmlns="http://www.w3.org/2000/svg" version="1.2" viewBox="64 0 29.18996823396226 34.94362972830188" width="2000" height="2333.3333333333335"><style>
		.s0 { opacity: .82;fill: #00a7c9 } 
		.s1 { opacity: .7;fill: #00a7a3 } 
		.s2 { fill: #ffffff } 
	</style><g id="Layer 1">
		<path class="s0" d="m89.65 14.78c-1.21 6.86-7.73 11.43-14.59 10.22-6.86-1.21-11.43-7.73-10.22-14.59 1.21-6.86 7.73-11.43 14.59-10.22 6.86 1.21 11.43 7.73 10.22 14.59z"></path>
		<path class="s1" d="m80.59 34.94c-6.96 0-12.59-5.63-12.59-12.59 0-6.97 5.63-12.6 12.59-12.6 6.97 0 12.6 5.63 12.6 12.6 0 6.96-5.63 12.59-12.6 12.59z"></path>
		<path class="s2" d="m91.93 25.85c-0.34 1.49-2.27 3.32-5.07 3.32 0 0-4 0.05-4.43-4-0.68 2.22-3.53 4-6.9 4 0 0-5.55 0-5.55-4.92 0-5.06 4.05-5.84 12.4-7.96v-2.89c0-4.97-2.61-7.63-6.22-5.89-1.69 0.87-1.93 1.74-1.64 1.79q0.24 0.03 0.47 0.1 0.24 0.08 0.45 0.21 0.21 0.12 0.39 0.29 0.18 0.16 0.33 0.36 0.29 0.41 0.4 0.89 0.11 0.48 0.03 0.97-0.08 0.49-0.34 0.91-0.27 0.42-0.67 0.71c-0.46 0.32-1.02 0.48-1.58 0.45-0.57-0.03-1.1-0.25-1.53-0.63-0.42-0.37-0.7-0.88-0.81-1.43-0.1-0.55-0.01-1.13 0.25-1.63 0.44-0.77 1.16-2.12 3.77-3.52q0.53-0.25 1.09-0.44 0.56-0.19 1.14-0.32 0.58-0.12 1.17-0.17 0.59-0.05 1.18-0.03c5.79 0 7.33 3.95 7.33 9.65v7.72c0 0 0 3.18 2.27 3.18q0.23 0 0.44-0.08 0.22-0.07 0.4-0.21 0.18-0.13 0.32-0.32 0.13-0.19 0.19-0.4zm-16.69-2.7c0 0.67 0.44 3.47 3.48 3.47q0.6-0.01 1.18-0.2 0.58-0.19 1.07-0.54 0.49-0.36 0.85-0.85 0.37-0.49 0.56-1.06v-6.85c-5.16 1.15-7.14 3.32-7.14 6.03z"></path>
	</g></svg>