<svg id="Camada_1" data-name="Camada 1" xmlns="http://www.w3.org/2000/svg" width="127.4727mm" height="127.4078mm" viewBox="0 0 361.3399 361.156"><path d="M360.6811,274.3922c-4.1684,0-7.1174-.068-10.0622.0149-5.1111.1437-9.2778,2.0828-11.2732,7.0413-1.9658,4.885-.8267,9.3132,3.0254,12.8977,2.3783,2.213,4.9431,4.2257,8.2192,7.0019-4.8111,4.92-8.8973,8.99-12.8566,13.18-3.8318,4.0549-7.533,8.2332-11.8715,12.9939-3.5407-3.3314-6.0227-5.72-8.5639-8.0448-3.6839-3.3693-7.594-5.4284-12.8119-3.1276-5.0361,2.2207-6.8211,6.2478-7.0617,11.2742-.1535,3.2081-.0286,6.4295-.0286,10.1806H262.6c-.1632-3.5906-.2631-7.032-.4887-10.4652-.3322-5.0529-2.1979-9.0106-7.3044-11.09-5.265-2.1439-9.1385.0262-12.7657,3.4273-2.333,2.1876-4.59,4.4564-7.1015,6.9041l-6.328-4.4444a12.59,12.59,0,0,0-1.1764,2.2282,20.2577,20.2577,0,0,1-9.4624,12.2631,18.3756,18.3756,0,0,0-5.6339,6.3943c-14.8665,25.29-48.0518,25.3-62.9156.0188a20.7588,20.7588,0,0,0-5.5889-6.4138c-10.06-7.0826-12.0606-13.67-7.0982-24.9369.3547-.8053.6315-1.6449.9027-2.3583-1.6294-4.192-3.2116-8.2628-5.068-13.0389-9.7844,9.79-19.4873,19.2411-28.8705,28.9994a40.0074,40.0074,0,0,1-15.33,9.9608q-32.7136,12.2241-65.1637,25.146c-6.95,2.7831-12.7762,1.783-17.9424-3.0466-5.3071-4.9615-6.1832-11.205-3.6276-17.89,9.0549-23.6861,18.08-47.3846,27.3534-70.9849,1.1318-2.88,3.4306-5.4657,5.6586-7.7244q20.2219-20.5,40.72-40.7272c2.085-2.0571,4.8115-3.4645,6.8919-4.9267-6.4177-17.3333-7.9491-33.3141-5.2031-50.36-3.0754-.1953-5.6376-.4857-8.2013-.4989-10.6346-.0547-21.27.0617-31.9039-.0468C19.0194,164.01,4.8659,153.2706.99,137.0586c-3.8214-15.9832,3.5944-31.3092,19.2638-39.84,1.2736-.6932,2.5048-1.4645,3.6375-2.13-1.2574-36.0482,11.0908-57.787,38.2115-67.5773,26.5463-9.5832,50.6421-.6317,71.0232,26.2709,6.8191,0,13.6019-.6878,20.1913.1486,12.266,1.5566,22.2083,7.8536,29.557,17.73,2.718,3.653,5.6253,5.5288,10.1649,5.8273,4.6794.3078,9.5816.718,13.8847,2.38,5.4915,2.122,8.5908.0807,12.2418-3.6223,20.32-20.61,40.8575-41.0059,61.3322-61.4635C293.64,1.6527,309.7222-1.9172,326.9955,2.8661c34.2516,9.4843,45.7172,51.2569,21.3472,77.3114-14.3167,15.3063-29.5271,29.7773-44.34,44.62-6.6761,6.69-13.2735,13.4619-20.0887,20.0071-2.6664,2.5607-3.2216,4.8833-2.1986,8.5769,1.8792,6.7861,2.8562,13.8218,4.2884,21.1585l11.2356,1.2381c0,3.6883-.1346,7.1508.0317,10.5988.2456,5.09,2.3284,9.2862,7.3013,11.1482,4.9027,1.8361,9.3838.5378,12.8081-3.4288,2.1145-2.4492,3.8551-5.2208,6.0639-8.26,9.1314,10.0472,16.796,18.48,24.84,27.3309-1.368,1.4208-4.0629,4.1151-6.6375,6.92-3.2857,3.5792-4.3181,7.7644-2.3412,12.2681a10.4075,10.4075,0,0,0,10.4837,6.674c3.2139-.073,6.4307-.0137,10.9292-.0137C361.1361,251.077,361.1909,262.5623,360.6811,274.3922Zm-197.057-139.95c-.6424-9.8767,3.459-17.241,10.6848-22.2992,5.2306-3.6615,6.6175-8.163,5.8082-13.5581-.7748-5.1646-1.8438-10.559-4.1509-15.1686C169.3114,70.12,153.5189,62.797,139.552,65.7724c-15.182,3.234-25.6192,14.2419-27.0625,28.5422,12.513,7.9847,15.46,12.32,15.1995,22.9014h-10.52c-2.01-5.9245-4.8821-11.0686-11.9673-11.2472-7.71-.1943-9.955,6.15-12.6945,11.3H82.0686c-.2373-12.656,7.3382-18.8884,15.5-22.4287,3.5556-7.9716,5.6724-14.8586,9.4743-20.6377C110.8248,68.4544,116.3,63.82,121.02,58.71,109.1816,37.4045,82.699,31.7828,63.3176,39.9676,47.3217,46.7227,30.0329,67.9015,37.4383,92.9788c24.156,8.1206,34.2166,19.4477,31.4741,35.744H59.0553c-.779-2.6564-1.3735-5.2137-2.273-7.6589-3.5783-9.7275-13.6042-16.0874-23.6234-15.0939A23.0218,23.0218,0,0,0,12.656,125.9856c-1.2035,11.1759,4.4232,20.8375,14.8339,24.3372a38.9032,38.9032,0,0,0,12.1369,1.6365q73.9628.1585,147.926.0673c1.7714,0,3.5516.0855,5.3129-.0555,9.2734-.7425,16.2482-7.6484,16.6929-16.4545.3875-7.671-5.3007-15.4282-12.6219-17.2134-9.1249-2.2252-17.0557,1.8933-20.7289,10.7843-.7534,1.8232-1.4414,3.6734-2.0982,5.3545Zm-.0581,29.764c0,5.8728-.1419,10.3018.0344,14.7182.2432,6.0934,1.86,7.6911,8.03,8.0906,2.9421.19,5.9061.047,8.86.0542,12.1113.0292,24.2313-.2126,36.331.1762A16.8027,16.8027,0,0,1,233.17,202.8526c.7774,8.8648-4.2118,16.2209-13,18.5477a38.868,38.868,0,0,1-9.6136,1.0308c-15.6561.1008-31.3131.0426-46.97.053-2.0668.0014-4.1357.0271-6.2.1236-3.1743.1483-5.4241,2.2342-4.989,4.9753a8.3748,8.3748,0,0,0,4.5464,5.5129c2.5952.9931,5.817.29,8.7623.4453,2.9282.1547,5.9838.0015,8.7456.8028,7.6535,2.2206,12.1519,8.6752,12.31,17.4522.1631,9.0525.0363,18.11.0363,27.53H212.476c4.8665-7.219,8.8982-14.1288,13.8567-20.2941,4.9775-6.1889,10.8909-11.6242,16.3715-17.4114,5.0738-5.3574,10.3361-10.5564,15.13-16.1546,10.5948-12.3723,15.583-26.9033,15.77-43.1343.5035-43.6529-31.0671-82.9728-73.8308-91.8381-2.3861-.4947-4.9152-.3-7.7525-.4457.2844,5.607.52,10.2463.7694,15.1691,2.3433.3586,4.3781.51,6.33.9934,19.6384,4.8654,28.8445,27.3823,17.9736,44.1782-5.8932,9.1048-14.5405,13.6013-25.3253,13.7852C182.6824,164.3291,173.5912,164.206,163.566,164.206Zm10.9366,115.22c0-9.4858.152-18.0168-.0522-26.5391-.1418-5.9158-1.35-6.9006-7.567-7.1755-3.2433-.1433-6.5131.1429-9.7425-.1171-8.87-.7141-15.4408-6.432-16.8-14.3758-1.9369-11.3229,5.4409-20.6074,17.1019-20.7837,17.4226-.2633,34.852-.0647,52.2785-.1057a29.6835,29.6835,0,0,0,7.029-.4841c2.8792-.7168,4.8379-3.0638,3.9046-5.9289a8.3212,8.3212,0,0,0-4.624-4.3643c-2.0867-.7931-4.6545-.3841-7.013-.3895-12.7006-.0287-25.408.2329-38.1-.1016-12.8677-.3389-19.3445-7.282-19.5182-20.1374-.0627-4.6377-.01-9.2771-.01-14.0847H89.9489c-5.1328,27.5622.3575,46.6823,18.8241,66.4456,2.4184,2.5883,4.8893,5.1331,7.4335,7.5975,12.5221,12.1281,24.942,24.331,32.0653,40.5443Zm110.6352,46.3443c1.072-9.8121,5.7131-16.9065,14.6407-20.74,9.3937-4.0336,17.7282-.9041,25.7567,4.5322l6.9372-7.4295c-6.3076-7.921-7.9246-16.2407-4.5032-25.2659,3.6335-9.5841,11.9632-13.1531,21.362-15.1876,0-2.4724.0463-4.2247-.0164-5.9731-.0412-1.1494-.2394-2.2933-.3565-3.3421-24.5293-5.8738-27.6446-25.49-17.1885-40.6126l-5.393-6.7333c-6.1341,2.0649-10.9645,4.2183-16.0237,5.25a17.8378,17.8378,0,0,1-14.9653-3.9967c-3.8276-3.1584-6.8941-7.2386-10.2327-10.8444-1.96,6.7784-3.8211,13.2122-5.6844,19.6551,26.7764,5.2169,41.3158,20.0115,41.31,41.8757-.0048,19.08-14.172,36.4938-32.5775,40.0441-22.3085,4.3033-39.4731-6.9437-49.82-33.427-2.9839,3.8309-5.852,7.0828-8.2278,10.6612-3.8849,5.851-8.0746,11.78-3.0739,19.1858a5.329,5.329,0,0,1,.4072,3.4626c-.9592,6.2669,2.4329,9.7193,7.3646,12.494,7.8452-6.0408,16.06-8.0619,25.1226-4.23,8.9874,3.8,13.1786,11.2627,14.7556,20.6208ZM332.4371,78.2359C345.4126,69.7,351.91,54.2483,347.8551,38.7674,344.453,25.78,332.922,15.3422,319.8926,13.5631c-15.6065-2.1311-28.74,4.1089-35.7954,16.2377ZM64.0208,286.6186c13.5124-13.4651,27.3249-27.23,41.17-41.0262L88.518,226.4056,45.5652,269.37ZM133.327,277.13a81.87,81.87,0,0,0-16.9394-20.5662l-42.2538,42.152L92.9612,317.449ZM80.3763,325.2164c-14.6372-14.637-28.8758-28.8754-43.4453-43.4449-4.3495,11.2266-8.9837,23.1878-14.18,36.6007,6.3137,5.8556,12.8425,11.7684,19.1881,17.8716,2.3,2.2116,4.4925,2.1773,7.21,1.1039C59.7871,333.1451,70.47,329.0544,80.3763,325.2164Zm199.386-39.678c16.1994-.0086,29.4266-13.5125,28.8154-29.4179a29.122,29.122,0,0,0-30.3629-27.9963c-4.2957.2163-7.895,1.4-10.8059,4.9508a146.0159,146.0159,0,0,1-12.0066,12.9491c-3.5241,3.3681-4.7291,7.2929-4.5289,11.9183A28.8627,28.8627,0,0,0,279.7623,285.5384Zm6.61-198.736-26.15,25.7193c4.9517,7.269,10.201,14.9752,14.7379,21.6357,9.9839-9.7916,19.8038-19.4223,29.57-29Zm-28.9092-28.533L228.25,87.4658l21.4088,14.3174c8.9874-8.7457,17.5773-17.1048,26.3281-25.62Zm9.1566-11.5036C283,63.1863,299.0948,79.3205,315.097,95.3617c2.1446-1.9792,4.8343-4.4615,6.7605-6.2393l-49.24-49.3219ZM181.2123,302.9241v-.0533c9.4034,0,18.8069.0311,28.21-.0164,3.4206-.0173,5.6972-1.628,5.67-5.26-.027-3.5332-2.2879-5.1789-5.606-5.5751a14.8983,14.8983,0,0,0-1.7616-.0551c-17.9258-.0026-35.8522-.0709-53.7772.0436-4.8192.0309-7.5024,2.2643-7.5905,5.5441-.0908,3.3913,2.2556,5.2487,7.5267,5.3322C162.991,303.0286,172.1025,302.9241,181.2123,302.9241ZM180.23,326.29c8.8131,0,17.6278.0989,26.4388-.0339,6.1819-.0932,8.44-1.6607,8.4773-5.3155.0379-3.7047-2.5288-5.5336-8.202-5.841-.293-.0159-.5874-.0077-.8811-.0077-16.7449,0-33.49-.0469-50.2344.0565-2.2627.0139-4.8529.2476-6.674,1.3756a6.2452,6.2452,0,0,0-2.5038,5.0124c.1954,1.5633,2.1049,3.4249,3.7164,4.1607,1.7491.7981,4.0219.5653,6.0677.5784C164.3665,326.3266,172.2984,326.2964,180.23,326.29Zm19.5,12.0515c-7.2651,0-13.43-.2075-19.5733.06-5.8723.2556-11.94-1.2359-17.9739,1.1326C172.9705,353.1667,190.4916,352.8877,199.73,338.3418ZM18.0243,330.85c-1.794,4.675-3.6321,8.6438-4.8237,12.7979-1.218,4.2466.808,6.3623,5.0651,5.2178,4.34-1.167,8.4855-3.0563,13.47-4.91Z" transform="translate(0 -0.8393)" fill="#fff"/><path d="M297.19,256.7128c.0891,9.8825-7.0875,17.377-16.8731,17.62-10.1643.2531-18.086-7.3-18.16-17.3141-.0724-9.82,8.2025-18.1359,17.844-17.9323A17.6688,17.6688,0,0,1,297.19,256.7128Zm-10.0529-.3017c-3.61-2.2361-5.8755-4.7177-8.03-4.6247-1.6577.0715-4.0051,3.17-4.5516,5.3042-.7365,2.8774,2.76,5.7555,5.7669,4.7739C282.4044,261.185,284,259.0144,287.1367,256.4111Z" transform="translate(0 -0.8393)" fill="#fff"/></svg>