<svg id="Camada_1" data-name="Camada 1" xmlns="http://www.w3.org/2000/svg" width="136.1573mm" height="126.424mm" viewBox="0 0 385.9576 358.3673"><path d="M372.4554,55.3412c-16.8188-28.7048-44.7842-47.6381-76.7288-51.945-31.7826-4.2874-63.5845,6.4765-87.2431,29.535-1.8842,1.8356-3.6777,3.8366-5.7532,6.149-1.0508,1.1708-2.1567,2.4064-3.3664,3.72l-3.59,3.9047-3.6712-3.83c-1.67-1.7415-3.1783-3.37-4.602-4.9036-2.74-2.9512-5.1079-5.5-7.6116-7.7834C159.4931,11.6013,136.347,2.2449,110.882,2.2449A112.46,112.46,0,0,0,91.44,3.9865C45.1052,12.1169-1.7416,56.23,2.6982,121.9709c1.907,28.2605,13.1249,53.2876,33.336,74.3809q11.7725,12.2929,23.4412,24.68l41.1778,43.4415q42.6486,44.9835,85.3361,89.9315c3.9728,4.1772,7.1251,6.2073,9.632,6.2073,2.4,0,5.3512-1.881,9.0224-5.7468Q280.62,274.934,356.46,194.8794A117.5422,117.5422,0,0,0,372.4554,55.3412ZM344.957,179.3351c-33.7835,36.1867-68.4654,72.6458-102.0089,107.9082q-20.1738,21.2051-40.3281,42.4329a29.92,29.92,0,0,1-2.87,2.562c-.5643.4606-1.2194,1.0022-2.0042,1.6735l-3.96,3.3826-3.2042-4.1058c-.6648-.853-1.2972-1.7027-1.9166-2.5394a47.2686,47.2686,0,0,0-3.4734-4.3393L171.898,312.27C132.0531,270.1942,90.8525,226.6846,50.22,183.9987c-16.2091-17.0263-25.7471-36.7769-28.3513-58.7C16.3452,78.8116,46.8759,33.1453,89.925,23.5035c29.8691-6.684,56.3167.6876,78.6163,21.917,3.7718,3.5869,7.3554,7.4008,10.8223,11.0882,2.2767,2.4193,4.55,4.842,6.8819,7.2029,3.7458,3.7945,6.8073,5.64,9.3531,5.64h.0163c2.6074-.01,5.7565-1.9459,9.632-5.9219,2.2637-2.3221,4.482-4.6863,6.7035-7.05,2.74-2.9188,5.4809-5.8376,8.2959-8.6786,18.729-18.8944,42.9226-28.254,68.0632-26.373,25.0726,1.881,47.476,14.6686,63.0819,36.0115C378.7373,94.7482,376.0325,146.0543,344.957,179.3351Z" transform="translate(-2.4056 -2.2449)" fill="#fff"/></svg>