<svg id="Camada_1" data-name="Camada 1" xmlns="http://www.w3.org/2000/svg" width="127.6682mm" height="127.7086mm" viewBox="0 0 361.8941 362.0087"><path d="M107.2148,214.0848c9.7652-9.8739,19.3224-19.4149,28.6493-29.1761.845-.8844.6029-3.292.1981-4.8148q-11.382-42.8224-22.9444-85.5968-5.0916-18.9482-10.1657-37.9008c-1.81-6.7967-.0811-9.7581,6.839-11.6215q30.2253-8.1387,60.4682-16.2134c1.2715-.3411,2.5265-.7438,4.0969-1.209,0-6.0574-.0389-12.0683.0105-18.0785.054-6.5668,2.5189-9.0434,9.148-9.0458q84.73-.0309,169.46-.0038c7.073.0019,9.3827,2.4019,9.3836,9.6825q.0136,100.6169.005,201.2337,0,70.167-.0009,140.3341c0,8.66-1.9658,10.6209-10.6535,10.6212-68.1076.0025-136.2157-.1395-204.3223.1253-12.9627.05-23.9875-3.42-33.1623-12.5882-.9339-.933-1.9725-1.763-2.9838-2.6154a5.66,5.66,0,0,0-1.0682-.5c-2.8641,7.4969-7.6484,13.1129-15.8476,14.8987a31.3042,31.3042,0,0,1-6.55.6526q-31.9943.07-63.9888.0186C9.1206,362.26.5028,353.6216.4912,338.9163Q.448,283.5332.4908,228.15c.0106-14.7,8.5633-23.4241,23.2261-23.4954,21.1821-.1029,42.365.0038,63.5474-.0424C95.2029,204.595,101.885,207.2408,107.2148,214.0848Zm95.1143-1.87c0-2.27,0-4.0163,0-5.7624q0-65.9845.0076-131.9689c.0026-7.1487,1.5628-8.9319,8.3765-9.889q15.4951-2.1768,17.5587-17.8695c.7922-6.0718,3.1018-8.2078,9.2889-8.2205q30.8956-.0634,61.7915.0034c5.9346.0143,8.2777,2.1752,9.0892,7.9547,1.5651,11.1449,7.09,16.6717,18.1958,18.2011,5.713.7869,7.6873,2.8872,7.749,8.6778.0881,8.2379.0668,16.4778.01,24.7162-.0387,5.6325-2.6506,8.9286-6.942,8.9959-4.2885.0672-7.0671-3.2608-7.16-8.8227-.0909-5.442-.1489-10.8911.0332-16.3285.0922-2.7587-.7038-4.0349-3.5178-4.9813A31.4505,31.4505,0,0,1,296.1019,56.215c-.8779-2.6254-1.9384-3.6958-4.8553-3.6662-15.2991.1554-30.6012.13-45.901.0178-2.6252-.0194-3.813.76-4.6356,3.3493a31.1408,31.1408,0,0,1-20.0877,20.7418c-3.2039,1.14-4.24,2.4532-4.23,5.8307.1209,41.7824.0769,83.5654.09,125.3482,0,1.4108.1554,2.8216.2422,4.2989h36.56c-20.2766-15.3824-24.4793-35.5785-11.09-51.9386,12.4765-15.2446,34.1728-16.96,48.9506-3.5864,8.6582,7.8356,12.1094,17.9083,10.591,29.4672-1.5295,11.643-8.24,19.9169-19.285,26.3043,24.9123-3.3612,39.19,13.4327,32.8986,34.019l4.9237.3621v-5.292q0-35.31,0-70.6189c0-1.1769-.0618-2.3589.0239-3.53.3552-4.8526,3.2728-7.99,7.2514-7.86,4,.1307,6.647,3.2938,6.85,8.2254.0484,1.175.0116,2.3537.0116,3.5306,0,26.9234-.0381,53.847.07,80.77a14.8769,14.8769,0,0,0,1.6177,6.6309c6.8386,12.9782,1.6812,28.0333-11.8,33.9755-.883.3892-1.7115.9017-2.6526,1.4034,3.6107,8.5834,3.1067,16.6516-2.0472,24.1322-5.1327,7.45-12.8247,10.2541-20.5969,10.44v19.3432h48.8978V14.8033H188.7782V212.2152ZM141.497,199.1445c-9.7534,9.868-18.7825,19.1108-27.9594,28.2049a8.8616,8.8616,0,0,0-2.8519,6.9335c.1,28.2445.2488,56.4916-.0827,84.7324-.075,6.4018,1.0545,11.2876,6.732,14.8554a50.9125,50.9125,0,0,1,8.0144,6.8979c5.6085,5.4544,12.2393,7.5183,20.0309,7.49,42.3667-.1516,84.7343-.0714,127.1015-.0755a35.8816,35.8816,0,0,0,4.4082-.0984,9.8075,9.8075,0,0,0,7.8361-14.1232c-2.1057-4.1746-5.72-5.5586-10.2088-5.5429-16.3288.057-32.658.0289-48.987.0067a25.49,25.49,0,0,1-4.825-.3148c-3.8515-.7523-5.959-3.2259-5.7777-7.138.1709-3.6861,2.3455-5.9432,6.0361-6.479a33.9321,33.9321,0,0,1,4.8413-.2q35.3061-.017,70.612-.0106c8.68-.0023,13.4446-3.4808,13.5091-9.8291.0651-6.4008-4.7387-10.0239-13.3093-10.0286q-11.9158-.0065-23.8316-.0012-24.7141-.0009-49.4284.01c-4.1.0073-7.2965-1.3012-8.3133-5.63-1.1028-4.6952,2.4024-8.4164,8.0938-8.48,9.2666-.1035,18.5354-.0307,27.8032-.0311,20.8894-.0008,41.7789-.0447,62.6681.0311,4.8976.0176,8.7092-1.6234,10.6609-6.2385,2.8679-6.7814-2.1743-13.4374-10.209-13.4507-29.5688-.0491-59.1376-.01-88.7064-.0456a19.4179,19.4179,0,0,1-5.6558-.6058,6.3344,6.3344,0,0,1-4.7728-7.0423,6.4257,6.4257,0,0,1,5.7733-6.2673,29.4,29.4,0,0,1,4.84-.1954q32.4375-.0166,64.8749-.0139c7.7322-.0062,12.542-3.8663,12.5345-9.974-.0075-6.1145-4.8148-9.9361-12.5423-9.968-1.3239-.0055-2.648-.0013-3.9719-.0013q-64.8747,0-129.75-.0042c-6.7614-.0013-8.41-1.2782-10.1521-7.8753C144.9223,212.5425,143.3746,206.426,141.497,199.1445ZM48.4927,218.778c-8.4254,0-16.197-.0278-23.9684.0079-7.6965.0354-9.9269,2.3094-9.9287,10.1q-.0133,54.5-.001,108.9993c.0014,8.0845,2.1733,10.2932,10.1435,10.2977q30.4492.0173,60.8985.0031c8.9833-.0014,10.9786-1.9643,10.9792-10.8033q.0035-53.8377-.004-107.6756a28.47,28.47,0,0,0-.1438-4.4019c-.5-3.1722-2.1819-5.9482-5.4814-6.054-9.33-.2991-18.6766-.1047-28.352-.1047v5.1113q0,35.9653-.01,71.9308a31.0752,31.0752,0,0,1-.2725,5.2736,6.4,6.4,0,0,1-6.7834,5.6986,6.3567,6.3567,0,0,1-6.6563-5.3241,24.8968,24.8968,0,0,1-.4034-5.255q-.0361-36.186-.016-72.3722Zm125.04-6.5525c-.53-2.1448-.9175-3.85-1.3723-5.5372q-12.6205-46.8162-25.2462-93.631c-1.8744-6.9666-.6852-9.2789,5.8856-11.9345,8.9647-3.623,13.4307-11.4468,12.0471-21.1045-.9429-6.5813.3926-8.5944,6.72-10.838,1.1-.39,2.6412-1.7011,2.666-2.6219.212-7.8874.1215-15.7829.1215-24.2222l-56.61,15.1615c13.99,51.8214,27.8707,103.238,41.7711,154.7278Zm94.7964-11.2632a19.6063,19.6063,0,1,0-19.6607-19.646A19.7487,19.7487,0,0,0,268.3293,200.9623Zm-94.1484-98.4636c-3.706,3.1765-7.267,5.9849-10.4894,9.1393a5.36,5.36,0,0,0-1.3191,4.2942c1.7789,7.4169,3.888,14.7547,5.89,22.1181q2.6244,9.6537,5.2576,19.3049l.6611-.1448Z" transform="translate(-0.4703 -0.413)" fill="#fff"/><path d="M180.0774,134.2566a7.026,7.026,0,0,1-7.0078,7.0025,7.1055,7.1055,0,0,1-6.8773-6.7208,6.9466,6.9466,0,1,1,13.8851-.2817Z" transform="translate(-0.4703 -0.413)" fill="#fff"/><path d="M180.0672,326.6419a7.0763,7.0763,0,0,1-7.1045,6.9193,6.999,6.999,0,0,1,.1526-13.9936A7.06,7.06,0,0,1,180.0672,326.6419Z" transform="translate(-0.4703 -0.413)" fill="#fff"/></svg>