<svg id="Camada_1" data-name="Camada 1" xmlns="http://www.w3.org/2000/svg" width="127.5508mm" height="127.504mm" viewBox="0 0 361.5613 361.4286"><path d="M165.9972,88.0929a31.4206,31.4206,0,0,1,2.6821-4.2647c27.7574-32.2616,62.89-53.29,102.726-67.0319A314.2945,314.2945,0,0,1,350.352.0985c8.9308-.6775,12.3206,2.0562,11.4659,10.85-5.7089,58.7278-22.6823,113.2638-61.2429,159.3186-7.8807,9.4122-17.2276,17.5979-26.2756,26.73,1.6705,4.0634,3.5764,8.2645,5.1438,12.5882,6.3238,17.4436,3.3722,33.5325-7.71,48.1362-11.4212,15.05-27.11,24.1987-44.66,29.9743-8.82,2.9026-18.2216,4.1578-27.4393,5.6789-3.95.6519-8.3577.9078-10.8362-3.7087-2.5674-4.7819.7172-7.7624,3.3481-10.8375a42.9016,42.9016,0,0,0,10.353-25.6691c.2239-3.354-.449-6.7677-.7695-10.8883-16.4575,3.5934-30.4726,13.2652-47.4857,11.3844-.1314.0837-.8444.2769-1.0673.7178-8.961,17.7269-23.7748,28.0226-42.5971,32.6872a295.8307,295.8307,0,0,1-32.76,6.2c-7.3095.9553-10.7139-2.834-9.5316-9.8531,1.8973-11.2645,3.8553-22.5771,6.8258-33.5895,4.951-18.355,15.089-33.0337,33.1588-41.203-2.26-17.3523,7.247-31.7857,11.2495-48.0911-12.4483-2.976-22.7749-.1263-32.4475,6.0979a55.39,55.39,0,0,0-5.5087,4.3756c-2.9116,2.4494-6.1631,3.722-9.72,1.8452-3.572-1.8849-4.35-5.3843-3.948-9.0972a140.3082,140.3082,0,0,1,1.9056-13.946c3.757-17.7655,10.7475-34.069,22.3492-48.2379,17.6091-21.5058,42.5547-28.7067,68.4489-15.6358C161.8688,86.5646,163.2419,86.9947,165.9972,88.0929Zm-28.5838,70.2116c22.1839,22.6829,43.6966,44.6792,64.7649,66.2212,60.992-27.3168,108.2054-74.89,125.7787-131.9129L269.2706,33.2775C207.1064,55.1248,165.7257,99.2909,137.4134,158.3045Zm-52.8485-7.67c14.6283-6.1012,28.2923-7.5023,41.38-4.442,9.7748-15.9265,19.0775-31.0842,28.3751-46.2334-11.5778-8.9035-30.68-8.0422-43.6838,3.5526-10.5744,9.4286-17.5315,21.1478-22.2585,34.3111C87.032,141.5718,86.0888,145.465,84.5649,150.6348Zm177.4938,56.6867L215.61,235.8744c4.1962,13.6323.9412,27.1243-3.9385,41.2292,18.851-4.6949,34.4124-12.2649,46.5226-25.8973C267.3678,240.8793,272.85,224.919,262.0587,207.3215ZM141.7662,243.2636c-4.9142-4.8413-9.3242-9.1423-13.6859-13.4917-11.1687-11.1375-12.7209-11.2166-24.8275-.4873A33.22,33.22,0,0,0,97.4,235.8137C89.25,248.32,86.382,262.4552,84.022,278.0317c12.461-2.0879,23.4711-4.5617,34.0231-9.0866C129.5385,264.0164,136.81,255.3393,141.7662,243.2636Zm144.5331-215.11,47.9114,47.83c6.175-20.9323,10.8816-40.2762,12.0486-60.5429C327.5868,16.6219,298.8368,22.6876,286.2993,28.1538ZM131.0024,172.5078c-3.1469,10.0171-6.1081,18.4629-8.28,27.107-.4884,1.9439,1.2292,5.111,2.8694,6.81C135.34,216.5231,145.399,226.32,155.27,236.3011c2.5354,2.5637,5.4581,3.4919,8.7717,2.4969,7.9143-2.3762,15.7638-4.9677,25.9169-8.1965C169.7151,210.6541,151.0343,192.2467,131.0024,172.5078Z" transform="translate(-0.3844 0)" fill="#fff"/><path d="M63.51,245.9244c-1.6976,2.8317-2.6295,5.3636-4.3557,7.1122q-22.5025,22.7966-45.3,45.3012c-4.3669,4.2884-8.3382,4.2242-11.5323.77C-.4859,296.07-.3583,292.0894,3.47,288.211q22.8086-23.11,45.9234-45.9176c2.345-2.3252,5.33-4.201,8.6267-2.0845C60.0254,241.4966,61.4377,243.7075,63.51,245.9244Z" transform="translate(-0.3844 0)" fill="#fff"/><path d="M68.5946,361.4286c-6.5021-.3156-9.7366-5.5858-7.3951-10.28a22.4068,22.4068,0,0,1,4.4456-5.3464q20.4232-20.5266,40.9328-40.9678a39.2746,39.2746,0,0,1,4.5549-4.096,6.4842,6.4842,0,0,1,8.817.4436c3.0464,2.7572,3.2032,6.0933,1.0415,9.484a20.39,20.39,0,0,1-2.8408,3.3189C103.8937,328.27,89.668,342.5857,75.2927,356.75,73.1137,358.8974,70.2173,360.3173,68.5946,361.4286Z" transform="translate(-0.3844 0)" fill="#fff"/><path d="M12.2327,361.4085c-6.4676-.1973-9.7773-5.4372-7.5645-10.1611a18.1839,18.1839,0,0,1,3.791-4.7517q21.0521-21.139,42.1963-42.1861c5.9482-5.9081,9.7439-6.5622,13.3946-2.6247,3.2167,3.4692,2.4145,7.4675-2.9111,12.8276q-21.0278,21.1637-42.2306,42.1523C16.7216,358.82,13.85,360.2806,12.2327,361.4085Z" transform="translate(-0.3844 0)" fill="#fff"/><path d="M73.2818,195.8269c-1.2142,2.4545-1.7314,4.5986-3.05,5.9776-6.2838,6.5739-12.6434,13.09-19.2644,19.3211-3.736,3.5158-8.081,3.2942-10.9284.18-2.7356-2.9919-2.8175-6.4662.6927-10.2053,6.2215-6.6271,12.6132-13.133,19.4-19.1653,1.7833-1.5851,5.5116-2.1409,7.9161-1.5155C70.0857,190.95,71.5015,193.8673,73.2818,195.8269Z" transform="translate(-0.3844 0)" fill="#fff"/><path d="M163.77,289.5918c6.25-.0736,9.5341,4.137,8.046,8.873a11.5223,11.5223,0,0,1-2.7535,4.3632c-5.914,6.0623-11.8091,12.1567-17.9971,17.9333-3.93,3.6689-7.8529,3.5814-10.86.5049-2.998-3.0672-2.9318-6.7735.8585-10.7874,5.8126-6.1557,11.853-12.104,17.9685-17.9608A21.4912,21.4912,0,0,1,163.77,289.5918Z" transform="translate(-0.3844 0)" fill="#fff"/><path d="M254.8155,142.0606a35.0554,35.0554,0,0,1-35.399-35.1236,35.4481,35.4481,0,1,1,70.8949.2357C290.1442,126.9107,274.6634,142.1263,254.8155,142.0606Zm20.906-35.2019a21.1273,21.1273,0,0,0-20.5684-20.9456c-11.161-.1575-20.77,9.2219-21.0267,20.5251a20.8008,20.8008,0,1,0,41.5951.4205Z" transform="translate(-0.3844 0)" fill="#fff"/><path d="M222.3868,147.103c-.3011.7732-.496,2.4162-1.4039,3.4057a129.8518,129.8518,0,0,1-11.6776,11.8221c-2.9816,2.51-6.6662,2.1271-9.4689-.8876-2.5137-2.7039-2.7783-6.1132-.47-8.8053a74.7785,74.7785,0,0,1,11.8085-11.6893C215.5285,137.7255,222.0628,141.31,222.3868,147.103Z" transform="translate(-0.3844 0)" fill="#fff"/><path d="M192.2876,177.1009c-.2392,3.7258-4.0528,7.0827-7.7,6.7781a7.4223,7.4223,0,0,1-6.4389-7.9083,6.644,6.644,0,0,1,7.1221-6.127A7.034,7.034,0,0,1,192.2876,177.1009Z" transform="translate(-0.3844 0)" fill="#fff"/></svg>