<svg id="Camada_1" data-name="Camada 1" xmlns="http://www.w3.org/2000/svg" width="127.9855mm" height="128mm" viewBox="0 0 362.7936 362.8346"><path d="M73.9688,102.572l37.204,0q58.5269,0,117.0539.0011c2.0691,0,4.1512-.1318,6.2048.0508,5.0245.4468,7.1542,2.149,7.2257,7.0838.2271,15.6556.1259,31.3168.0806,46.9754-.0127,4.346-2.6071,6.398-6.7239,6.6317-2.9475.1673-5.908.1372-8.8627.1376q-94.8847.01-189.7693.005l-10.2561,0c-1.998,7.0672-2.3006,102.5991-.438,114.5318h9.3355q60.7438,0,121.4878.0045c2.3637,0,4.7374-.0631,7.0887.1249,3.4568.2766,5.3918,2.3053,5.5108,5.7478.1178,3.4061-1.63,5.6652-5.0089,6.2444a36.9119,36.9119,0,0,1-6.1869.2467q-67.3947.017-134.7894-.005c-10.09-.0068-11.0484-.9679-11.0864-11.2529q-.2376-64.2636-.3753-128.5277a52.9686,52.9686,0,0,1,.1478-5.3114c.3249-3.3075,2.0591-5.6841,5.45-6.0107,3.7857-.3645,6.1178,1.6875,6.8713,5.4216.3463,1.7169.6037,3.4517.972,5.5878H49.0884a40.6745,40.6745,0,0,0-3.5066-4.8687c-9.5691-9.6556-19.389-19.0706-28.7243-28.9447a26.8373,26.8373,0,0,1-5.8541-10.4817C7.465,94.0961,4.5053,82.0554,1.3193,70.0821c-.3034-1.14-.6995-2.2615-.9236-3.4165C-.9857,59.5445-.0835,57.6951,6.967,55.74c16.7594-4.647,33.5923-9.0287,50.3912-13.5336Q134.2316,21.5921,211.1.9582c7.5426-2.0256,9.4316-1.2391,11.5732,6.2716,3.8015,13.3322,7.3627,26.7343,10.8889,40.1428,2.2028,8.3757,1.0831,10.2634-7.48,12.5811q-42.6866,11.5544-85.4133,22.96C120.164,88.4032,99.641,93.8229,79.1373,99.3149c-1.8953.5076-3.71,1.3138-5.5628,1.9816Q73.7716,101.9341,73.9688,102.572Zm59.0465,48.0915q.2617-.9586.5233-1.9173-15.5953-15.5931-31.2163-31.16c-1.01-1.0014-2.3679-2.318-3.5822-2.3368-7.0788-.1095-14.2528-1.2157-22.2874.85,11.197,11.1715,21.5638,21.612,32.0864,31.8933a9.0168,9.0168,0,0,0,5.2912,2.5516C120.2123,150.8524,126.6184,150.6635,133.0153,150.6635Zm-97.47-35.6806q-.4407.9876-.8816,1.9753,15.6854,15.5122,31.3939,31.001c1.0158.9972,2.3242,2.3216,3.5485,2.3784,7.1182.33,14.3016,1.1376,22.9445-.7252C81.0347,138.239,70.6549,127.8468,60.0588,117.68a10.4243,10.4243,0,0,0-6.1671-2.5766C47.7928,114.7626,41.6627,114.9829,35.5448,114.9829Zm-3.989-15.9458c7.22-1.9364,12.4978-3.698,17.9164-4.6943,4.2307-.778,6.5908-3.0288,8.5861-6.6143,6.0006-10.7827,12.3035-21.3973,18.4292-32.1114.9277-1.6227,1.5394-3.426,2.7565-6.1879-7.0812,1.879-13.0441,3.2486-18.8462,5.1173a10.1868,10.1868,0,0,0-5.3245,3.9161C47.4088,71.319,40.0234,84.3417,31.5558,99.0371Zm89.0717-60.15c-22.3528,4.2746-22.35,4.2759-32.3507,21.6653-1.9076,3.3172-3.8617,6.6075-5.7593,9.93-3.01,5.271-5.9912,10.5589-9.8525,17.371,7.9415-1.9958,14.1876-3.3707,20.29-5.2208a8.8993,8.8993,0,0,0,4.5814-3.7546C105.15,65.9665,112.5556,52.932,120.6275,38.8873Zm33.6563,27.2111c6.7265-1.76,11.4059-3.2685,16.2-4.1618A14.1037,14.1037,0,0,0,181.208,53.98c4.65-8.8236,9.8569-17.3536,14.8244-26.01,1.8369-3.201,3.65-6.4157,6.53-11.4822-7.0841,1.8191-12.05,3.3286-17.1172,4.3248a12.7661,12.7661,0,0,0-9.3722,7.0621C171.1618,36.8949,165.9,45.7246,160.79,54.6371,158.9511,57.8434,157.14,61.065,154.2838,66.0984Zm7.611-38.7936c-8.3454,2.2479-14.7875,3.8971-21.1631,5.7724a6.29,6.29,0,0,0-3.415,2.4922c-7.7012,13.1459-15.2638,26.3731-23.9278,41.4292,8.3993-2.1876,14.8577-3.7695,21.2395-5.6159a6.3348,6.3348,0,0,0,3.3318-2.6934C145.66,55.5452,153.2346,42.3277,161.8948,27.3048Zm57.0493,122.2935c-11.4984-11.4774-22.2163-22.2318-33.0388-32.88a6.2745,6.2745,0,0,0-3.8864-1.6315c-6.5755-.1645-13.1573-.0751-19.7369-.0751,6.5106,8.7922,13.5125,15.8022,20.5188,22.8078,13.9527,13.9509,13.9537,13.9507,33.716,12.6262A20.5662,20.5662,0,0,0,218.9441,149.5983Zm-42.124.1724c-11.66-11.6464-22.36-22.39-33.1637-33.0283a6.2946,6.2946,0,0,0-3.8889-1.66c-6.5953-.1674-13.1971-.0765-19.7966-.0765,6.43,8.6942,13.4171,15.69,20.4109,22.6783,13.934,13.9238,13.9355,13.9228,33.665,12.789C174.3318,150.4563,174.6108,150.3356,176.82,149.7707Zm29.3823-34.591,22.2359,24.5937V115.18ZM20.5985,92.5892C27.11,81.3082,32.6923,71.6374,39.3776,60.0553l-25.747,6.9908C15.9971,75.7215,18.0343,83.19,20.5985,92.5892ZM194.9807,55.2785l25.6911-6.95L213.72,22.7249C207.0986,34.2276,201.5385,43.8864,194.9807,55.2785Z" transform="translate(0.1518 0)" fill="#fff"/><path d="M309.0446,338.4922v11.4029c2.2891.22,4.53.606,6.7735.6211,10.0493.0682,20.0994.0166,30.1491.0433,2.064.0055,4.542-.5193,6.0873.42,1.9658,1.195,4.3727,3.6273,4.38,5.5348.0075,1.9566-2.2766,4.5994-4.25,5.6893-1.85,1.0218-4.6065.4953-6.9641.4962q-73.1565.0261-146.313-.0016a36.1224,36.1224,0,0,1-7.0484-.3934c-2.98-.5982-4.9325-3.0489-4.2652-5.7755a9.7139,9.7139,0,0,1,4.5946-5.576c1.8908-.9785,4.621-.3926,6.982-.3968,11.7637-.021,23.5275-.01,35.87-.01V338.4913c-8.3951,0-16.5652.0711-24.7332-.0313-3.8273-.048-7.7813.1141-11.45-.7667a23.3766,23.3766,0,0,1-17.5511-22c-.3327-20.0859-.217-40.181-.106-60.2714.029-5.2343,2.599-7.8812,6.5839-7.4759,4.4213.45,5.8113,3.425,5.8133,7.4451q.0132,25.7049.0627,51.41a74.5219,74.5219,0,0,0,.1207,7.9715c.7235,6.6,4.9954,10.6712,11.5488,11.2,1.7629.1421,3.5452.0553,5.3185.0554q61.1855.0035,122.3709-.0018c12.8261-.0033,13.1835-.2334,17.4738-12.5665,1.2219-3.5126,3.3258-5.7,7.16-5.1208,4.0144.6066,4.852,3.648,4.9249,7.2268.2342,11.4792-9.531,22.0536-21.6006,22.7612-7.0709.4147-14.1827.1387-21.2761.1645C316.4848,338.5019,313.27,338.4922,309.0446,338.4922ZM248.65,350.0336H295.56V339.1587H248.65Z" transform="translate(0.1518 0)" fill="#fff"/><path d="M362.5967,257.9639q.0072,13.2874-.0019,26.5749c-.0037,2.0652.0117,4.1389-.165,6.193-.2589,3.0118-1.8909,4.9422-4.98,5.262-3.3935.3515-5.91-1.1815-6.6885-4.4557a35.1644,35.1644,0,0,1-.5594-7.9086c-.0756-16.83-.03-33.6618-.143-50.492-.077-11.4145-4.02-15.2516-15.4877-15.4029-2.6582-.0352-5.3182.0372-7.9755-.0236-13.33-.3046-22.8-8.756-24.6566-21.971-1.5979-11.371-4.1433-13.7649-15.1636-13.8565-10.3383-.0859-20.6794-.128-31.0164.0186-9.1987.13-12.5865,3.3038-13.9154,12.4786-2.3035,15.9039-10.7109,23.2387-26.7641,23.343-2.3632.0154-4.7281-.0488-7.0894.02-8.6579.2512-12.0716,2.967-14.3641,11.3514-1.469,5.3727-3.6467,7.2219-7.5892,6.4444-3.7523-.74-5.3387-3.745-4.7933-9.08,1.1267-11.021,11.1735-20.3646,22.8194-21.0281,4.1229-.2349,8.2753.0767,12.4032-.1078,7.8178-.3494,11.6267-3.9862,12.7177-11.8538,2.2827-16.4639,10.5922-24.0587,27.0177-24.35,10.3357-.1833,20.6793-.1623,31.016-.0065,16.6569.2512,24.8289,7.5505,27.1934,23.9941,1.1806,8.2094,5.22,11.9212,13.4791,12.2305,3.245.1216,6.4991-.0263,9.7473.04,15.0473.3079,24.6625,9.9249,24.9254,25.1258C362.7211,239.6544,362.5918,248.81,362.5967,257.9639Z" transform="translate(0.1518 0)" fill="#fff"/><path d="M331.0574,110.7788c-5.6547,8.9054-13.5634,10.9138-22.6438,10.6779-9.1363-.2372-18.2858.0744-27.4253-.0878-14.5474-.2581-21.5288-7.4015-21.6609-21.9371-.0536-5.8953-.0662-11.7922-.0059-17.6874.1472-14.4085,7.3242-21.4754,21.9631-21.5838,9.1419-.0677,18.293.2294,27.4248-.0816,9.1746-.3122,16.9452,1.9043,22.197,10.8318,4.9309-1.2282,9.6878-2.5458,14.505-3.5836,8.3607-1.8012,11.079.2222,11.1975,8.4881q.2154,15.0315.0213,30.068c-.1028,7.9365-2.8471,10.09-10.4316,8.5177-2.59-.5367-5.1363-1.2841-7.71-1.905C336.2283,111.9505,333.9578,111.447,331.0574,110.7788Zm-35.02-2.322c5.6015,0,11.2157.2343,16.801-.0675,5.3106-.2869,6.62-1.7123,6.79-7.1583.2108-6.7715.1824-13.5584.0045-20.332-.1622-6.1733-1.769-8.0072-7.8631-8.15q-15.9119-.3715-31.8381.0063c-5.63.1286-7.6165,2.0451-7.8361,7.4145-.2889,7.06-.2759,14.1518.0262,21.2119.2238,5.23,1.8092,6.7311,7.1145,7.0044C284.8232,108.6744,290.4362,108.451,296.0378,108.4568Zm47.5268-7.896V80.8656l-10.7583,2.93c-.14,2.7587-.3982,5.0713-.3342,7.3748.0625,2.2519.4537,4.4947.7066,6.7964Z" transform="translate(0.1518 0)" fill="#fff"/><path d="M272.1388,229.7027a42.0678,42.0678,0,0,1,42.3145,42.0519c.1243,23.67-19.166,43.1146-42.594,42.934-23.0228-.1776-42.4086-19.4563-42.5891-42.3542C229.0852,248.87,248.4,229.6618,272.1388,229.7027Zm29.72,42.331a29.4845,29.4845,0,0,0-29.6275-29.7256c-16.8828-.069-30.5577,13.5724-30.2236,30.15a29.977,29.977,0,0,0,30.2277,29.3873A29.6387,29.6387,0,0,0,301.8588,272.0337Z" transform="translate(0.1518 0)" fill="#fff"/><path d="M96.1877,217.4538c0-9.1373-.1659-18.2785.05-27.4107.191-8.0889,4.2283-10.6629,11.4784-7.119q28.1562,13.7628,56.0373,28.0807a11.28,11.28,0,0,1,5.1563,6.4071c.997,3.7564-2.3644,5.6318-5.3356,7.1178-18.4255,9.216-36.8163,18.5035-55.3235,27.5531-7.8624,3.8446-11.7988,1.405-11.9827-7.2182-.1948-9.1331-.0437-18.2735-.0437-27.4108Zm52.8395.1591-39.4348-19.6151V237.395Z" transform="translate(0.1518 0)" fill="#fff"/><path d="M271.8825,205.4668c-4.13-.0023-8.2638.1193-12.3872-.04-3.4191-.1318-5.457-2.072-5.678-5.5426-.2216-3.4812,1.7931-6.1786,4.8984-6.33,8.8128-.43,17.6736-.4419,26.4863-.0149,3.1255.1516,5.1263,2.9727,4.8247,6.3845-.2944,3.3313-2.2559,5.43-5.7566,5.5206C280.1435,205.5507,276.012,205.469,271.8825,205.4668Z" transform="translate(0.1518 0)" fill="#fff"/><path d="M217.7977,302.2954a5.9537,5.9537,0,0,1,5.9511,6.1781,6.1356,6.1356,0,1,1-12.2662-.3452A6.0789,6.0789,0,0,1,217.7977,302.2954Z" transform="translate(0.1518 0)" fill="#fff"/><path d="M253.7471,272.31c-.12-10.0705,8.2885-18.7576,18.19-18.7917,9.8276-.0339,18.5954,8.8,18.518,18.658a18.5806,18.5806,0,0,1-17.9365,18.1506A18.2923,18.2923,0,0,1,253.7471,272.31Zm25.9238-.1557c-3.457-2.6015-5.3274-4.8509-7.66-5.5432-2.6846-.7967-5.8117,2.5248-5.647,5.3749.196,3.3908,2.3643,5.9315,5.5218,5.5258C274.1559,277.22,276.14,274.7025,279.6709,272.154Z" transform="translate(0.1518 0)" fill="#fff"/></svg>